<?xml version="1.0" standalone="no"?>
<!DOCTYPE svg PUBLIC "-//W3C//DTD SVG 20010904//EN"
 "http://www.w3.org/TR/2001/REC-SVG-20010904/DTD/svg10.dtd">
<svg version="1.0" xmlns="http://www.w3.org/2000/svg"
 width="140.000000pt" height="140.000000pt" viewBox="0 0 140.000000 140.000000"
 preserveAspectRatio="xMidYMid meet">
<metadata>
Created by potrace 1.11, written by Peter Selinger 2001-2013
</metadata>
<g transform="translate(0.000000,140.000000) scale(0.100000,-0.100000)"
fill="#000000" stroke="none">
<path d="M439 1367 c-173 -62 -275 -198 -284 -377 0 -14 -13 -44 -28 -66 -15
-23 -29 -54 -30 -70 -2 -25 4 -32 41 -49 45 -22 45 -19 26 -119 -8 -43 -15
-127 -18 -216 l-4 -95 -44 -2 c-25 -1 -57 -7 -71 -12 -25 -10 -27 -15 -27 -66
0 -60 -5 -57 83 -59 36 -1 45 -18 72 -131 l21 -90 39 -4 c22 -2 236 -6 475 -8
410 -3 437 -2 470 15 83 45 112 138 112 357 0 50 5 90 14 107 29 56 48 30 49
-66 0 -46 4 -71 13 -73 7 -3 12 5 13 19 1 17 3 18 6 5 2 -9 9 -17 14 -17 6 0
8 18 4 48 -3 26 -8 59 -9 74 -6 61 -61 99 -94 66 -9 -9 -12 -9 -13 2 0 8 -3
29 -5 45 -2 17 -9 65 -15 108 -6 44 -12 84 -15 91 -3 7 10 17 29 24 19 7 42
21 51 31 22 24 12 45 -41 91 -20 18 -38 43 -39 54 -7 102 -52 202 -125 275
-30 30 -80 65 -126 88 l-77 38 -200 3 c-190 2 -205 1 -267 -21z"/>
</g>
</svg>
